<?xml version="1.0" encoding="UTF-8"?>
<!-- Generated by Pixelmator Pro 3.6.17 -->
<svg width="452" height="452" viewBox="0 0 452 452" xmlns="http://www.w3.org/2000/svg">
    <g id="Group">
        <g id="g1">
            <g id="g2">
                <path id="Path" fill="#d5d5d5" stroke="none" d="M 403.869995 -0.985992 L 49.095001 -0.985992 C 22.110001 -0.985992 0 21.123993 0 48.131012 L 0 402.927002 C 0 429.890015 22.110001 452.001007 49.095001 452.001007 L 403.869995 452.001007 C 430.877014 452.001007 452.987 429.891022 452.987 402.927002 L 452.987 48.131012 C 452.985992 21.123993 430.876007 -0.985992 403.869995 -0.985992 Z M 415.820007 409.873016 L 37.188 409.873016 L 37.188 100.850006 L 415.820007 100.850006 L 415.820007 409.873016 Z"/>
                <path id="path1" fill="#d5d5d5" stroke="none" d="M 161.608002 168.042999 C 161.608002 188.390839 145.112823 204.886002 124.764999 204.886002 C 104.417175 204.886002 87.921997 188.390839 87.921997 168.042999 C 87.921997 147.69516 104.417175 131.200012 124.764999 131.200012 C 145.112823 131.200012 161.608002 147.69516 161.608002 168.042999 Z"/>
                <path id="path2" fill="#d5d5d5" stroke="none" d="M 192.281998 152.705994 L 353.997986 152.705994 L 353.997986 183.401001 L 192.281998 183.401001 Z"/>
                <path id="path3" fill="#d5d5d5" stroke="none" d="M 161.608002 258.07901 C 161.608002 278.426849 145.112823 294.921997 124.764999 294.921997 C 104.417175 294.921997 87.921997 278.426849 87.921997 258.07901 C 87.921997 237.731186 104.417175 221.236008 124.764999 221.236008 C 145.112823 221.236008 161.608002 237.731186 161.608002 258.07901 Z"/>
                <path id="path4" fill="#d5d5d5" stroke="none" d="M 192.281998 242.742004 L 353.997986 242.742004 L 353.997986 273.416016 L 192.281998 273.416016 Z"/>
                <path id="path5" fill="#d5d5d5" stroke="none" d="M 161.608002 348.136993 C 161.608002 368.484833 145.112823 384.980011 124.764999 384.980011 C 104.417175 384.980011 87.921997 368.484833 87.921997 348.136993 C 87.921997 327.789185 104.417175 311.294006 124.764999 311.294006 C 145.112823 311.294006 161.608002 327.789185 161.608002 348.136993 Z"/>
                <path id="path6" fill="#d5d5d5" stroke="none" d="M 192.281998 332.779022 L 353.997986 332.779022 L 353.997986 363.453003 L 192.281998 363.453003 Z"/>
            </g>
        </g>
    </g>
</svg>
