<?xml version="1.0" encoding="UTF-8"?>
<!-- Generated by Pixelmator Pro 3.6.17 -->
<svg width="800" height="800" viewBox="0 0 800 800" xmlns="http://www.w3.org/2000/svg">
    <g id="Page-1">
        <g id="add">
            <path id="Combined-Shape" fill="#d5d5d5" fill-rule="evenodd" stroke="none" d="M 300 341.199982 L 400 541.202271 L 453.93335 433.333313 L 657.399841 433.332123 C 610.434021 523.687317 524.634094 623.687683 400 733.333374 C 275.365936 623.687683 189.565979 523.687317 142.600174 433.332123 L 253.934464 433.333313 L 300 341.199982 Z M 520 100 C 619.411255 100 700 180.588745 700 280 C 700 307.693878 695.190063 336.582428 685.57019 366.665588 L 487.266663 366.666687 L 450 292.131073 L 400 392.100006 L 300 192.131042 L 212.699997 366.666687 L 114.429802 366.665588 C 104.809937 336.582428 100 307.693878 100 280 C 100 180.588745 180.588745 100 280 100 C 326.113831 100 368.177551 117.340698 400.026062 145.856934 C 431.848846 117.329773 473.900635 100 520 100 Z"/>
        </g>
    </g>
</svg>
