<?xml version="1.0" encoding="UTF-8"?>
<!-- Generated by Pixelmator Pro 3.6.17 -->
<svg width="800" height="800" viewBox="0 0 800 800" xmlns="http://www.w3.org/2000/svg">
    <path id="Path" fill="#d5d5d5" stroke="none" d="M 733.333313 566.666687 L 733.333313 700 C 733.333313 718.409485 718.409485 733.333313 700 733.333313 L 566.666687 733.333313 C 548.257202 733.333313 533.333313 718.409485 533.333313 700 L 533.333313 566.666687 C 533.333313 548.257202 548.257202 533.333374 566.666687 533.333374 L 600 533.333374 L 600 483.333344 C 600 474.128601 592.538086 466.666656 583.333313 466.666656 L 216.666672 466.666656 C 207.461914 466.666656 200 474.128601 200 483.333344 L 200 533.333374 L 233.333328 533.333374 C 251.742828 533.333374 266.666656 548.257202 266.666656 566.666687 L 266.666656 700 C 266.666656 718.409485 251.742828 733.333313 233.333328 733.333313 L 100 733.333313 C 81.590508 733.333313 66.666664 718.409485 66.666664 700 L 66.666664 566.666687 C 66.666664 548.257202 81.590508 533.333374 100 533.333374 L 133.333328 533.333374 L 133.333328 433.333344 C 133.333328 414.923828 148.257172 400 166.666672 400 L 366.666656 400 L 366.666656 300 L 300 300 C 281.590485 300 266.666656 285.076172 266.666656 266.666687 L 266.666656 100 C 266.666656 81.590515 281.590485 66.666687 300 66.666687 L 500 66.666687 C 518.409485 66.666687 533.333313 81.590515 533.333313 100 L 533.333313 266.666687 C 533.333313 285.076172 518.409485 300 500 300 L 433.333344 300 L 433.333344 400 L 633.333313 400 C 651.742798 400 666.666687 414.923828 666.666687 433.333344 L 666.666687 533.333374 L 700 533.333374 C 718.409485 533.333374 733.333313 548.257202 733.333313 566.666687 Z"/>
</svg>
