<?xml version="1.0" encoding="UTF-8"?>
<!-- Generated by Pixelmator Pro 3.6.17 -->
<svg width="800" height="800" viewBox="0 0 800 800" xmlns="http://www.w3.org/2000/svg">
    <path id="Path" fill="none" stroke="#d5d5d5" stroke-width="50" stroke-linecap="round" d="M 366.666656 466.666656 L 100 466.666656"/>
    <path id="path1" fill="none" stroke="#d5d5d5" stroke-width="50" stroke-linecap="round" d="M 366.666656 600 L 100 600"/>
    <path id="path2" fill="none" stroke="#d5d5d5" stroke-width="50" d="M 629.166687 470.610016 C 684.293274 502.440002 711.860046 518.353333 715.906677 541.313354 C 716.920044 547.059998 716.920044 552.936646 715.906677 558.680054 C 711.860046 581.640015 684.293274 597.553345 629.166687 629.383362 C 574.040039 661.209961 546.473328 677.123291 524.566711 669.149963 C 519.083313 667.156677 513.996643 664.216675 509.526672 660.466675 C 491.666656 645.480042 491.666656 613.65332 491.666656 549.996704 C 491.666656 486.340027 491.666656 454.513336 509.526672 439.526642 C 513.996643 435.776672 519.083313 432.839996 524.566711 430.843323 C 546.473328 422.869995 574.040039 438.783325 629.166687 470.610016 Z"/>
    <path id="path3" fill="none" stroke="#d5d5d5" stroke-width="50" stroke-linecap="round" d="M 100 200 L 450 200 M 666.666687 200 L 591.666687 200"/>
    <path id="path4" fill="none" stroke="#d5d5d5" stroke-width="50" stroke-linecap="round" d="M 666.666687 333.333344 L 316.666656 333.333344 M 100 333.333344 L 175 333.333344"/>
</svg>
