<?xml version="1.0" encoding="UTF-8"?>
<!-- Generated by Pixelmator Pro 3.6.17 -->
<svg width="800" height="800" viewBox="0 0 800 800" xmlns="http://www.w3.org/2000/svg">
    <g id="Calendar--CalendarCheck">
        <path id="Vector" fill="none" stroke="#d5d5d5" stroke-width="66.666664" stroke-linecap="round" stroke-linejoin="round" d="M 133.333328 266.666687 L 666.666687 266.666687 M 133.333328 266.666687 L 133.333328 560.006653 C 133.333328 597.343323 133.333328 616.003357 140.59967 630.263306 C 146.990997 642.806702 157.182327 653.016663 169.726669 659.406677 C 183.973328 666.666687 202.632996 666.666687 239.897003 666.666687 L 560.103333 666.666687 C 597.366638 666.666687 616 666.666687 630.246643 659.406677 C 642.790039 653.016663 653.016663 642.806702 659.406677 630.263306 C 666.666687 616.016663 666.666687 597.383301 666.666687 560.119995 L 666.666687 266.666687 M 133.333328 266.666687 L 133.333328 240.006653 C 133.333328 202.669678 133.333328 183.987305 140.59967 169.726685 C 146.990997 157.182312 157.182327 146.991028 169.726669 140.59967 C 183.987335 133.333313 202.669662 133.333313 240.006668 133.333313 L 266.666656 133.333313 M 666.666687 266.666687 L 666.666687 239.896973 C 666.666687 202.632996 666.666687 183.973328 659.406677 169.726685 C 653.016663 157.182312 642.790039 146.991028 630.246643 140.59967 C 615.986694 133.333313 597.343323 133.333313 560.006653 133.333313 L 533.333313 133.333313 M 266.666656 133.333313 L 533.333313 133.333313 M 266.666656 133.333313 L 266.666656 66.666687 M 533.333313 133.333313 L 533.333313 66.666687 M 500 400 L 366.666656 533.333374 L 300 466.666656"/>
    </g>
</svg>
