<?xml version="1.0" encoding="UTF-8"?>
<!-- Generated by Pixelmator Pro 3.6.17 -->
<svg width="800" height="800" viewBox="0 0 800 800" xmlns="http://www.w3.org/2000/svg">
    <path id="Path" fill="#d5d5d5" stroke="none" d="M 766.666687 400 C 766.666687 411.81665 766.106689 423.503326 765.013306 435.033325 C 746.126709 416.136688 724.013306 400.466675 699.570007 388.916656 C 693.73999 228.49231 561.849976 100.227661 400 100.227661 C 234.440323 100.227661 100.227669 234.440308 100.227669 400 C 100.227669 561.849976 228.49234 693.73999 388.916656 699.570007 C 400.466675 724.013306 416.136688 746.126709 435.033325 765.013306 C 423.503326 766.106689 411.81665 766.666687 400 766.666687 C 197.495667 766.666687 33.333332 602.503296 33.333332 400 C 33.333332 197.495667 197.495667 33.333313 400 33.333313 C 602.503357 33.333313 766.666687 197.495667 766.666687 400 Z"/>
    <path id="path1" fill="#d5d5d5" stroke="none" d="M 433.333344 396.040009 L 461.419983 412.256653 C 442.823334 426.006653 426.339996 442.456665 412.553345 461.023346 L 383.91333 444.486694 C 378.123352 441.143311 373.716675 436.32666 370.890015 430.783325 C 366.666656 424.246674 366.666656 415.556641 366.666656 415.556641 L 366.666656 200 C 366.666656 181.590332 381.589996 166.666687 400 166.666687 C 418.410004 166.666687 433.333344 181.590698 433.333344 200 L 433.333344 396.040009 Z"/>
    <path id="path2" fill="#d5d5d5" stroke="none" d="M 509.763336 590.236694 C 522.780029 577.220032 543.886719 577.220032 556.90332 590.236694 L 578.273315 611.606689 L 641.57666 548.303345 C 654.596619 535.286621 675.700012 535.286621 688.716675 548.303345 C 701.736633 561.323364 701.736633 582.426636 688.716675 595.446655 L 604.043335 680.119995 C 601.16333 683 597.890015 685.243347 594.393372 686.84668 C 581.626648 694.313293 564.956665 692.573364 554.01001 681.623352 L 509.763336 637.376648 C 496.746674 624.359985 496.746674 603.253357 509.763336 590.236694 Z"/>
    <path id="path3" fill="#d5d5d5" fill-rule="evenodd" stroke="none" d="M 600 800 C 710.456665 800 800 710.456665 800 600 C 800 489.543335 710.456665 400 600 400 C 489.543335 400 400 489.543335 400 600 C 400 710.456665 489.543335 800 600 800 Z M 600 733.936707 C 526.030029 733.936707 466.063354 673.970032 466.063354 600 C 466.063354 526.030029 526.030029 466.063354 600 466.063354 C 673.970032 466.063354 733.936707 526.030029 733.936707 600 C 733.936707 673.970032 673.970032 733.936707 600 733.936707 Z"/>
</svg>
